0
SECTION
2
HEADER
9
$INSUNITS
70
4
9
$ACADVER
1
AC1014
9
$HANDSEED
5
FFFF
0
ENDSEC
0
SECTION
2
TABLES
0
TABLE
2
VPORT
5
8
100
AcDbSymbolTable
0
ENDTAB
0
TABLE
2
LTYPE
5
5
100
AcDbSymbolTable
0
LTYPE
5
14
100
AcDbSymbolTableRecord
100
AcDbLinetypeTableRecord
2
BYBLOCK
70
0
0
LTYPE
5
15
100
AcDbSymbolTableRecord
100
AcDbLinetypeTableRecord
2
BYLAYER
70
0
0
LTYPE
5
16
100
AcDbSymbolTableRecord
100
AcDbLinetypeTableRecord
2
DASHED
70
0
3
Dashed __ __ __ __ __ __ __ __ __ __ __ __ __ _
72
65
73
2
40
0.75
49
0.5
74
0
49
-0.25
74
0
0
ENDTAB
0
TABLE
2
LAYER
5
2
100
AcDbSymbolTable
70
3
0
LAYER
5
50
100
AcDbSymbolTableRecord
100
AcDbLayerTableRecord
2
1
70
0
62
7
6
DASHED
0
LAYER
5
51
100
AcDbSymbolTableRecord
100
AcDbLayerTableRecord
2
0
70
0
62
7
6
CONTINUOUS
0
ENDTAB
0
TABLE
2
STYLE
5
3
100
AcDbSymbolTable
70
1
0
STYLE
5
11
100
AcDbSymbolTableRecord
100
AcDbTextStyleTableRecord
2
STANDARD
70
0
0
ENDTAB
0
TABLE
2
VIEW
5
6
100
AcDbSymbolTable
70
0
0
ENDTAB
0
TABLE
2
UCS
5
7
100
AcDbSymbolTable
70
0
0
ENDTAB
0
TABLE
2
APPID
5
9
100
AcDbSymbolTable
70
2
0
APPID
5
12
100
AcDbSymbolTableRecord
100
AcDbRegAppTableRecord
2
ACAD
70
0
0
ENDTAB
0
TABLE
2
DIMSTYLE
5
A
100
AcDbSymbolTable
70
1
0
ENDTAB
0
TABLE
2
BLOCK_RECORD
5
1
100
AcDbSymbolTable
70
1
0
BLOCK_RECORD
5
1F
100
AcDbSymbolTableRecord
100
AcDbBlockTableRecord
2
*MODEL_SPACE
0
BLOCK_RECORD
5
1B
100
AcDbSymbolTableRecord
100
AcDbBlockTableRecord
2
*PAPER_SPACE
0
ENDTAB
0
ENDSEC
0
SECTION
2
BLOCKS
0
BLOCK
5
20
100
AcDbEntity
100
AcDbBlockBegin
2
*MODEL_SPACE
0
ENDBLK
5
21
100
AcDbEntity
100
AcDbBlockEnd
0
BLOCK
5
1C
100
AcDbEntity
100
AcDbBlockBegin
2
*PAPER_SPACE
0
ENDBLK
5
1D
100
AcDbEntity
100
AcDbBlockEnd
0
ENDSEC
0
SECTION
2
ENTITIES
0
POINT
5
100
100
AcDbEntity
8
0
100
AcDbPoint
10
0
20
0
30
0
0
POINT
5
101
100
AcDbEntity
8
0
100
AcDbPoint
10
0
20
0
30
0
0
POINT
5
102
100
AcDbEntity
8
0
100
AcDbPoint
10
-17.699999999999999
20
17.699999999999999
30
0
0
POINT
5
103
100
AcDbEntity
8
0
100
AcDbPoint
10
17.699999999999999
20
-17.699999999999999
30
0
0
LWPOLYLINE
5
104
100
AcDbEntity
8
0
100
AcDbPolyline
90
8
70
1
43
0.0
10
18.300000000000001
20
18.800000000000001
10
-18.300000000000018
20
18.800000000000004
42
0.41421356237311974
10
-18.800000000000001
20
18.300000000000001
10
-18.800000000000001
20
-18.300000000000011
42
0.41421356237310802
10
-18.300000000000001
20
-18.800000000000001
10
18.299999999999994
20
-18.800000000000001
42
0.41421356237309503
10
18.799999999999997
20
-18.300000000000001
10
18.800000000000001
20
18.300000000000001
42
0.41421356237309243
0
LWPOLYLINE
5
105
100
AcDbEntity
8
0
100
AcDbPolyline
90
8
70
1
43
0.0
10
-18.300000000000001
20
18.100000000000001
10
-18.300000000000001
20
-18.099999999999994
42
0.41421356237310802
10
-18.100000000000001
20
-18.300000000000001
10
18.100000000000001
20
-18.300000000000001
42
0.41421356237310153
10
18.300000000000001
20
-18.100000000000001
10
18.300000000000001
20
18.099999999999994
42
0.41421356237310802
10
18.100000000000001
20
18.300000000000001
10
-18.099999999999994
20
18.300000000000001
42
0.41421356237310802
0
LWPOLYLINE
5
106
100
AcDbEntity
8
0
100
AcDbPolyline
90
8
70
1
43
0.0
10
-18.199999999999999
20
18.100000000000001
10
-18.199999999999999
20
-18.099999999999994
42
0.41421356237311452
10
-18.100000000000001
20
-18.199999999999999
10
18.100000000000001
20
-18.199999999999999
42
0.41421356237308854
10
18.199999999999999
20
-18.100000000000001
10
18.199999999999999
20
18.099999999999994
42
0.41421356237311452
10
18.100000000000001
20
18.200000000000003
10
-18.099999999999994
20
18.199999999999999
42
0.41421356237311452
0
LINE
5
107
100
AcDbEntity
8
0
100
AcDbLine
10
13.274999999999999
20
17.699999999999999
30
0
11
14.533501907994273
21
15.686396947209161
31
0
0
LWPOLYLINE
5
108
100
AcDbEntity
8
0
100
AcDbPolyline
90
34
70
1
43
0.0
10
16.441498092005723
20
12.633603052790843
10
17.699999999999996
20
10.620000000000003
10
15.643749999999997
20
7.3300000000000036
10
15.331249999999997
20
7.3300000000000036
10
11.218749999999996
20
13.910000000000004
10
10.906250000000011
20
13.910000000000004
10
6.7937500000000073
20
7.330000000000001
10
6.4812499999999984
20
7.330000000000001
10
2.3687499999999959
20
13.910000000000004
10
2.0562500000000039
20
13.910000000000004
10
-2.056249999999999
20
7.3300000000000001
10
-2.3687500000000012
20
7.330000000000001
10
-6.4812500000000028
20
13.910000000000004
10
-6.7937499999999984
20
13.910000000000004
10
-10.906250000000002
20
7.3299999999999983
10
-11.218750000000002
20
7.330000000000001
10
-14.53350190799428
20
12.633603052790839
42
-0.2867962264113203
10
-16.441498092005723
20
12.633603052790841
10
-17.699999999999999
20
10.619999999999997
10
-15.643750000000001
20
7.3299999999999974
10
-15.331250000000001
20
7.3299999999999974
10
-11.218749999999996
20
13.910000000000004
10
-10.906250000000004
20
13.910000000000004
10
-6.7937500000000011
20
7.3300000000000001
10
-6.4812500000000011
20
7.3300000000000001
10
-2.3687499999999972
20
13.910000000000004
10
-2.056250000000003
20
13.910000000000004
10
2.0562500000000004
20
7.3300000000000001
10
2.3687499999999995
20
7.3300000000000001
10
6.4812500000000028
20
13.910000000000004
10
6.793749999999994
20
13.910000000000004
10
10.906249999999996
20
7.3300000000000018
10
11.218750000000002
20
7.3300000000000018
10
14.533501907994275
20
12.633603052790841
42
0.28679622641132035
0
LINE
5
109
100
AcDbEntity
8
0
100
AcDbLine
10
17.699999999999999
20
17.699999999999999
30
0
11
16.441498092005723
21
15.686396947209158
31
0
0
LINE
5
110
100
AcDbEntity
8
0
100
AcDbLine
10
8.8499999999999996
20
17.699999999999999
30
0
11
10.906249999999996
21
14.410000000000004
31
0
0
LINE
5
111
100
AcDbEntity
8
0
100
AcDbLine
10
13.274999999999999
20
17.699999999999999
30
0
11
11.21875
21
14.410000000000004
31
0
0
LINE
5
112
100
AcDbEntity
8
0
100
AcDbLine
10
4.4249999999999989
20
17.699999999999999
30
0
11
6.4812499999999984
21
14.410000000000004
31
0
0
LINE
5
113
100
AcDbEntity
8
0
100
AcDbLine
10
8.8499999999999996
20
17.699999999999999
30
0
11
6.7937500000000011
21
14.410000000000004
31
0
0
LINE
5
114
100
AcDbEntity
8
0
100
AcDbLine
10
11.21875
20
14.410000000000004
30
0
11
10.906249999999996
21
14.410000000000004
31
0
0
LINE
5
115
100
AcDbEntity
8
0
100
AcDbLine
10
6.7937500000000011
20
14.410000000000004
30
0
11
6.4812499999999984
21
14.410000000000004
31
0
0
LINE
5
116
100
AcDbEntity
8
0
100
AcDbLine
10
-1.1102230246251565e-15
20
17.699999999999999
30
0
11
2.0562499999999968
21
14.410000000000004
31
0
0
LINE
5
117
100
AcDbEntity
8
0
100
AcDbLine
10
4.4249999999999989
20
17.699999999999999
30
0
11
2.3687500000000004
21
14.410000000000004
31
0
0
LINE
5
118
100
AcDbEntity
8
0
100
AcDbLine
10
2.3687500000000004
20
14.410000000000004
30
0
11
2.0562499999999968
21
14.410000000000004
31
0
0
LINE
5
119
100
AcDbEntity
8
0
100
AcDbLine
10
-4.4250000000000007
20
17.699999999999999
30
0
11
-2.3687500000000026
21
14.410000000000004
31
0
0
LINE
5
120
100
AcDbEntity
8
0
100
AcDbLine
10
-1.1102230246251565e-15
20
17.699999999999999
30
0
11
-2.0562499999999999
21
14.410000000000004
31
0
0
LINE
5
121
100
AcDbEntity
8
0
100
AcDbLine
10
-2.0562499999999999
20
14.410000000000004
30
0
11
-2.3687500000000026
21
14.410000000000004
31
0
0
LINE
5
122
100
AcDbEntity
8
0
100
AcDbLine
10
-8.8500000000000014
20
17.699999999999999
30
0
11
-6.7937500000000028
21
14.410000000000004
31
0
0
LINE
5
123
100
AcDbEntity
8
0
100
AcDbLine
10
-4.4250000000000007
20
17.699999999999999
30
0
11
-6.4812499999999993
21
14.410000000000004
31
0
0
LINE
5
124
100
AcDbEntity
8
0
100
AcDbLine
10
-6.4812499999999993
20
14.410000000000004
30
0
11
-6.7937500000000028
21
14.410000000000004
31
0
0
LINE
5
125
100
AcDbEntity
8
0
100
AcDbLine
10
-13.275000000000002
20
17.699999999999999
30
0
11
-11.218750000000002
21
14.41
31
0
0
LINE
5
126
100
AcDbEntity
8
0
100
AcDbLine
10
-8.8500000000000014
20
17.699999999999999
30
0
11
-10.90625
21
14.41
31
0
0
LINE
5
127
100
AcDbEntity
8
0
100
AcDbLine
10
-10.90625
20
14.41
30
0
11
-11.218750000000002
21
14.41
31
0
0
LINE
5
128
100
AcDbEntity
8
0
100
AcDbLine
10
-13.275000000000002
20
17.699999999999999
30
0
11
-14.533501907994278
21
15.686396947209158
31
0
0
LINE
5
129
100
AcDbEntity
8
0
100
AcDbLine
10
-16.441498092005723
20
15.686396947209158
30
0
11
-17.699999999999999
21
17.699999999999999
31
0
0
LWPOLYLINE
5
130
100
AcDbEntity
8
0
100
AcDbPolyline
90
34
70
1
43
0.0
10
15.331249999999997
20
6.8300000000000027
10
15.643749999999997
20
6.8300000000000027
10
17.699999999999996
20
3.5400000000000031
10
15.643749999999994
20
0.24999999999999911
10
15.331249999999999
20
0.24999999999999911
10
11.218749999999996
20
6.8300000000000018
10
10.906250000000002
20
6.8300000000000036
10
6.7937499999999984
20
0.25000000000000022
10
6.4812500000000011
20
0.25000000000000022
10
2.3687500000000012
20
6.8299999999999992
10
2.056249999999999
20
6.8299999999999992
10
-2.0562500000000004
20
0.25000000000000022
10
-2.3687500000000017
20
0.25000000000000022
10
-6.4812500000000011
20
6.8299999999999983
10
-6.7937500000000011
20
6.8299999999999983
10
-10.90625
20
0.25000000000000022
10
-11.218750000000002
20
0.25000000000000022
10
-15.331250000000001
20
6.8299999999999983
10
-15.643750000000001
20
6.8299999999999983
10
-17.699999999999999
20
3.5399999999999974
10
-15.643750000000002
20
0.25000000000000017
10
-15.331249999999999
20
0.25000000000000022
10
-11.218749999999996
20
6.8300000000000027
10
-10.906250000000004
20
6.8300000000000027
10
-6.7937500000000028
20
0.25000000000000128
10
-6.4812499999999984
20
0.25000000000000133
10
-2.3687499999999999
20
6.8299999999999983
10
-2.0562499999999995
20
6.8299999999999983
10
2.0562499999999986
20
0.25000000000000022
10
2.3687500000000044
20
0.25000000000000022
10
6.4812500000000046
20
6.8299999999999992
10
6.7937499999999984
20
6.8300000000000001
10
10.906249999999996
20
0.24999999999999911
10
11.218749999999995
20
0.24999999999999911
0
LWPOLYLINE
5
131
100
AcDbEntity
8
0
100
AcDbPolyline
90
34
70
1
43
0.0
10
15.643749999999997
20
-0.25000000000000022
10
17.699999999999996
20
-3.5399999999999974
10
15.643749999999997
20
-6.8299999999999983
10
15.331249999999992
20
-6.8299999999999983
10
11.218749999999996
20
-0.25000000000000022
10
10.906249999999996
20
-0.25000000000000022
10
6.7937499999999984
20
-6.8299999999999983
10
6.481249999999994
20
-6.8299999999999983
10
2.368749999999999
20
-0.25000000000000022
10
2.0562500000000039
20
-0.25000000000000022
10
-2.0562499999999977
20
-6.8299999999999992
10
-2.3687500000000039
20
-6.8300000000000001
10
-6.4812500000000028
20
-0.24999999999999911
10
-6.7937499999999984
20
-0.24999999999999914
10
-10.90625
20
-6.8300000000000018
10
-11.218750000000002
20
-6.8300000000000018
10
-15.331250000000002
20
-0.24999999999999911
10
-15.643749999999999
20
-0.24999999999999922
10
-17.699999999999999
20
-3.5400000000000031
10
-15.643750000000001
20
-6.8300000000000018
10
-15.331249999999999
20
-6.8300000000000018
10
-11.218749999999996
20
-0.25000000000000022
10
-10.906250000000002
20
-0.25000000000000022
10
-6.7937500000000011
20
-6.8300000000000001
10
-6.4812500000000011
20
-6.8300000000000001
10
-2.3687499999999995
20
-0.25000000000000022
10
-2.0562500000000017
20
-0.25000000000000022
10
2.0562499999999928
20
-6.8299999999999992
10
2.3687500000000039
20
-6.8299999999999992
10
6.4812500000000028
20
-0.25000000000000022
10
6.7937500000000011
20
-0.25000000000000022
10
10.906249999999989
20
-6.8299999999999983
10
11.218749999999995
20
-6.8299999999999983
10
15.331249999999992
20
-0.25000000000000022
0
LWPOLYLINE
5
132
100
AcDbEntity
8
0
100
AcDbPolyline
90
34
70
1
43
0.0
10
15.643749999999997
20
-7.3299999999999983
10
17.699999999999996
20
-10.619999999999997
10
16.414998145005558
20
-12.676002967991096
42
0.2867962264113203
10
14.560001854994432
20
-12.676002967991096
10
11.21875
20
-7.3299999999999974
10
10.906249999999996
20
-7.3299999999999974
10
6.7937499999999957
20
-13.91
10
6.481249999999994
20
-13.91
10
2.3687499999999968
20
-7.3299999999999983
10
2.0562500000000021
20
-7.3299999999999983
10
-2.0562500000000012
20
-13.91
10
-2.3687500000000017
20
-13.91
10
-6.4812500000000011
20
-7.3300000000000018
10
-6.7937500000000011
20
-7.3300000000000018
10
-10.906250000000002
20
-13.910000000000004
10
-11.21875
20
-13.910000000000004
10
-15.331250000000001
20
-7.3300000000000036
10
-15.643750000000001
20
-7.3300000000000036
10
-17.699999999999999
20
-10.620000000000003
10
-16.414998145005562
20
-12.676002967991096
42
-0.28679622641132091
10
-14.560001854994432
20
-12.676002967991097
10
-11.21875
20
-7.330000000000001
10
-10.906250000000002
20
-7.330000000000001
10
-6.7937500000000011
20
-13.910000000000002
10
-6.481250000000002
20
-13.910000000000002
10
-2.3687499999999986
20
-7.330000000000001
10
-2.0562500000000021
20
-7.330000000000001
10
2.0562499999999995
20
-13.91
10
2.3687499999999977
20
-13.91
10
6.4812499999999993
20
-7.3299999999999974
10
6.7937499999999957
20
-7.3299999999999974
10
10.906249999999996
20
-13.91
10
11.218749999999996
20
-13.91
10
15.331249999999997
20
-7.3299999999999983
0
LINE
5
133
100
AcDbEntity
8
0
100
AcDbLine
10
16.414998145005562
20
-15.643997032008901
30
0
11
17.699999999999999
21
-17.699999999999999
31
0
0
LINE
5
134
100
AcDbEntity
8
0
100
AcDbLine
10
13.274999999999997
20
-17.699999999999999
30
0
11
14.560001854994432
21
-15.643997032008903
31
0
0
LINE
5
135
100
AcDbEntity
8
0
100
AcDbLine
10
11.218749999999995
20
-14.409999999999998
30
0
11
10.906249999999996
21
-14.409999999999998
31
0
0
LINE
5
136
100
AcDbEntity
8
0
100
AcDbLine
10
11.218749999999995
20
-14.409999999999998
30
0
11
13.274999999999997
21
-17.699999999999999
31
0
0
LINE
5
137
100
AcDbEntity
8
0
100
AcDbLine
10
8.8499999999999979
20
-17.699999999999999
30
0
11
10.906249999999996
21
-14.409999999999998
31
0
0
LINE
5
138
100
AcDbEntity
8
0
100
AcDbLine
10
6.7937499999999957
20
-14.409999999999998
30
0
11
8.8499999999999979
21
-17.699999999999999
31
0
0
LINE
5
139
100
AcDbEntity
8
0
100
AcDbLine
10
4.424999999999998
20
-17.699999999999999
30
0
11
6.4812499999999984
21
-14.409999999999998
31
0
0
LINE
5
140
100
AcDbEntity
8
0
100
AcDbLine
10
6.7937499999999957
20
-14.409999999999998
30
0
11
6.4812499999999984
21
-14.409999999999998
31
0
0
LINE
5
141
100
AcDbEntity
8
0
100
AcDbLine
10
4.424999999999998
20
-17.699999999999999
30
0
11
2.3687499999999977
21
-14.409999999999998
31
0
0
LINE
5
142
100
AcDbEntity
8
0
100
AcDbLine
10
2.0562500000000004
20
-14.409999999999998
30
0
11
-1.6653345369377348e-15
21
-17.699999999999999
31
0
0
LINE
5
143
100
AcDbEntity
8
0
100
AcDbLine
10
2.3687499999999977
20
-14.409999999999998
30
0
11
2.0562500000000004
21
-14.409999999999998
31
0
0
LINE
5
144
100
AcDbEntity
8
0
100
AcDbLine
10
-2.056250000000003
20
-14.41
30
0
11
-1.6653345369377348e-15
21
-17.699999999999999
31
0
0
LINE
5
145
100
AcDbEntity
8
0
100
AcDbLine
10
-2.3687500000000008
20
-14.41
30
0
11
-4.4250000000000016
21
-17.699999999999999
31
0
0
LINE
5
146
100
AcDbEntity
8
0
100
AcDbLine
10
-2.056250000000003
20
-14.41
30
0
11
-2.3687500000000008
21
-14.41
31
0
0
LINE
5
147
100
AcDbEntity
8
0
100
AcDbLine
10
-4.4250000000000016
20
-17.699999999999999
30
0
11
-6.481250000000002
21
-14.41
31
0
0
LINE
5
148
100
AcDbEntity
8
0
100
AcDbLine
10
-6.7937500000000011
20
-14.41
30
0
11
-8.8500000000000014
21
-17.699999999999999
31
0
0
LINE
5
149
100
AcDbEntity
8
0
100
AcDbLine
10
-6.481250000000002
20
-14.41
30
0
11
-6.7937500000000011
21
-14.41
31
0
0
LINE
5
150
100
AcDbEntity
8
0
100
AcDbLine
10
-10.906250000000002
20
-14.41
30
0
11
-8.8500000000000014
21
-17.699999999999999
31
0
0
LINE
5
151
100
AcDbEntity
8
0
100
AcDbLine
10
-11.21875
20
-14.41
30
0
11
-13.275000000000002
21
-17.699999999999999
31
0
0
LINE
5
152
100
AcDbEntity
8
0
100
AcDbLine
10
-10.906250000000002
20
-14.41
30
0
11
-11.21875
21
-14.41
31
0
0
LINE
5
153
100
AcDbEntity
8
0
100
AcDbLine
10
-14.560001854994438
20
-15.643997032008908
30
0
11
-13.275000000000002
21
-17.699999999999999
31
0
0
LINE
5
154
100
AcDbEntity
8
0
100
AcDbLine
10
-16.414998145005566
20
-15.643997032008908
30
0
11
-17.699999999999999
21
-17.700000000000003
31
0
0
LINE
5
155
100
AcDbEntity
8
0
100
AcDbLine
10
17.699999999999996
20
-17.699999999999999
30
0
11
17.699999999999999
21
17.699999999999999
31
0
0
LINE
5
156
100
AcDbEntity
8
0
100
AcDbLine
10
17.699999999999996
20
-17.699999999999999
30
0
11
-17.699999999999999
21
-17.699999999999999
31
0
0
LINE
5
157
100
AcDbEntity
8
0
100
AcDbLine
10
-17.699999999999999
20
17.699999999999999
30
0
11
-17.699999999999999
21
-17.700000000000003
31
0
0
LINE
5
158
100
AcDbEntity
8
0
100
AcDbLine
10
-17.699999999999999
20
17.699999999999999
30
0
11
17.699999999999999
21
17.699999999999999
31
0
0
CIRCLE
5
159
100
AcDbEntity
8
0
100
AcDbCircle
10
15.487499999999997
20
-14.16
30
0
40
1.3000000000000007
210
0
220
0
230
1
0
CIRCLE
5
160
100
AcDbEntity
8
0
100
AcDbCircle
10
-15.487500000000001
20
-14.160000000000002
30
0
40
1.3000000000000003
210
0
220
0
230
1
0
CIRCLE
5
161
100
AcDbEntity
8
0
100
AcDbCircle
10
-15.487500000000001
20
14.16
30
0
40
1.2999999999999998
210
0
220
0
230
1
0
CIRCLE
5
162
100
AcDbEntity
8
0
100
AcDbCircle
10
15.487499999999997
20
14.160000000000002
30
0
40
1.2999999999999994
210
0
220
0
230
1
0
ARC
5
163
100
AcDbEntity
8
0
100
AcDbCircle
10
15.487499999999997
20
14.160000000000002
30
0
40
1.8000000000000005
210
0
220
-0
230
1
100
AcDbArc
50
57.9946167919164
51
122.0053832080835
0
ARC
5
164
100
AcDbEntity
8
0
100
AcDbCircle
10
-15.487500000000001
20
14.16
30
0
40
1.7999999999999998
210
0
220
-0
230
1
100
AcDbArc
50
57.994616791916528
51
122.00538320808347
0
ARC
5
165
100
AcDbEntity
8
0
100
AcDbCircle
10
15.487499999999997
20
-14.16
30
0
40
1.7499999999999984
210
0
220
0
230
1
100
AcDbArc
50
237.99461679191648
51
302.00538320808357
0
ARC
5
166
100
AcDbEntity
8
0
100
AcDbCircle
10
-15.487500000000001
20
-14.160000000000002
30
0
40
1.7500000000000018
210
0
220
0
230
1
100
AcDbArc
50
237.99461679191651
51
302.00538320808334
0
ENDSEC
0
SECTION
2
OBJECTS
0
DICTIONARY
5
C
100
AcDbDictionary
3
ACAD_GROUP
350
D
3
ACAD_MLINESTYLE
350
17
0
DICTIONARY
5
D
100
AcDbDictionary
0
DICTIONARY
5
1A
330
C
100
AcDbDictionary
0
DICTIONARY
5
17
100
AcDbDictionary
0
ENDSEC
0
EOF
