%TF.GenerationSoftware,KiCad,Pcbnew,8.0.3-rc1*%
%TF.CreationDate,2025-07-22T16:47:34-07:00*%
%TF.ProjectId,OrthusTrackpad,4f727468-7573-4547-9261-636b7061642e,rev?*%
%TF.SameCoordinates,Original*%
%TF.FileFunction,Legend,Bot*%
%TF.FilePolarity,Positive*%
%FSLAX46Y46*%
G04 Gerber Fmt 4.6, Leading zero omitted, Abs format (unit mm)*
G04 Created by KiCad (PCBNEW 8.0.3-rc1) date 2025-07-22 16:47:34*
%MOMM*%
%LPD*%
G01*
G04 APERTURE LIST*
G04 Aperture macros list*
%AMRoundRect*
0 Rectangle with rounded corners*
0 $1 Rounding radius*
0 $2 $3 $4 $5 $6 $7 $8 $9 X,Y pos of 4 corners*
0 Add a 4 corners polygon primitive as box body*
4,1,4,$2,$3,$4,$5,$6,$7,$8,$9,$2,$3,0*
0 Add four circle primitives for the rounded corners*
1,1,$1+$1,$2,$3*
1,1,$1+$1,$4,$5*
1,1,$1+$1,$6,$7*
1,1,$1+$1,$8,$9*
0 Add four rect primitives between the rounded corners*
20,1,$1+$1,$2,$3,$4,$5,0*
20,1,$1+$1,$4,$5,$6,$7,0*
20,1,$1+$1,$6,$7,$8,$9,0*
20,1,$1+$1,$8,$9,$2,$3,0*%
%AMRotRect*
0 Rectangle, with rotation*
0 The origin of the aperture is its center*
0 $1 length*
0 $2 width*
0 $3 Rotation angle, in degrees counterclockwise*
0 Add horizontal line*
21,1,$1,$2,0,0,$3*%
%AMFreePoly0*
4,1,14,0.885355,0.885355,0.900000,0.850000,0.900000,-0.850000,0.885355,-0.885355,0.850000,-0.900000,-0.850000,-0.900000,-0.885355,-0.885355,-0.900000,-0.850000,-0.900000,0.550000,-0.885355,0.585355,-0.585355,0.885355,-0.550000,0.900000,0.850000,0.900000,0.885355,0.885355,0.885355,0.885355,$1*%
G04 Aperture macros list end*
%ADD10C,0.150000*%
%ADD11C,0.120000*%
%ADD12C,0.200000*%
%ADD13C,0.250000*%
%ADD14RoundRect,0.140000X-0.140000X-0.170000X0.140000X-0.170000X0.140000X0.170000X-0.140000X0.170000X0*%
%ADD15RoundRect,0.140000X0.170000X-0.140000X0.170000X0.140000X-0.170000X0.140000X-0.170000X-0.140000X0*%
%ADD16RoundRect,0.200000X-0.200000X-0.275000X0.200000X-0.275000X0.200000X0.275000X-0.200000X0.275000X0*%
%ADD17RoundRect,0.140000X0.140000X0.170000X-0.140000X0.170000X-0.140000X-0.170000X0.140000X-0.170000X0*%
%ADD18RotRect,0.200000X0.800000X315.000000*%
%ADD19RotRect,0.200000X0.800000X225.000000*%
%ADD20RotRect,0.200000X0.800000X135.000000*%
%ADD21RotRect,0.200000X0.800000X45.000000*%
%ADD22FreePoly0,315.000000*%
%ADD23R,0.300000X1.100000*%
%ADD24R,1.100000X1.800000*%
G04 APERTURE END LIST*
D10*
X151746666Y-101309580D02*
X151794285Y-101357200D01*
X151794285Y-101357200D02*
X151937142Y-101404819D01*
X151937142Y-101404819D02*
X152032380Y-101404819D01*
X152032380Y-101404819D02*
X152175237Y-101357200D01*
X152175237Y-101357200D02*
X152270475Y-101261961D01*
X152270475Y-101261961D02*
X152318094Y-101166723D01*
X152318094Y-101166723D02*
X152365713Y-100976247D01*
X152365713Y-100976247D02*
X152365713Y-100833390D01*
X152365713Y-100833390D02*
X152318094Y-100642914D01*
X152318094Y-100642914D02*
X152270475Y-100547676D01*
X152270475Y-100547676D02*
X152175237Y-100452438D01*
X152175237Y-100452438D02*
X152032380Y-100404819D01*
X152032380Y-100404819D02*
X151937142Y-100404819D01*
X151937142Y-100404819D02*
X151794285Y-100452438D01*
X151794285Y-100452438D02*
X151746666Y-100500057D01*
X150794285Y-101404819D02*
X151365713Y-101404819D01*
X151079999Y-101404819D02*
X151079999Y-100404819D01*
X151079999Y-100404819D02*
X151175237Y-100547676D01*
X151175237Y-100547676D02*
X151270475Y-100642914D01*
X151270475Y-100642914D02*
X151365713Y-100690533D01*
X136699580Y-94023333D02*
X136747200Y-93975714D01*
X136747200Y-93975714D02*
X136794819Y-93832857D01*
X136794819Y-93832857D02*
X136794819Y-93737619D01*
X136794819Y-93737619D02*
X136747200Y-93594762D01*
X136747200Y-93594762D02*
X136651961Y-93499524D01*
X136651961Y-93499524D02*
X136556723Y-93451905D01*
X136556723Y-93451905D02*
X136366247Y-93404286D01*
X136366247Y-93404286D02*
X136223390Y-93404286D01*
X136223390Y-93404286D02*
X136032914Y-93451905D01*
X136032914Y-93451905D02*
X135937676Y-93499524D01*
X135937676Y-93499524D02*
X135842438Y-93594762D01*
X135842438Y-93594762D02*
X135794819Y-93737619D01*
X135794819Y-93737619D02*
X135794819Y-93832857D01*
X135794819Y-93832857D02*
X135842438Y-93975714D01*
X135842438Y-93975714D02*
X135890057Y-94023333D01*
X135794819Y-94356667D02*
X135794819Y-95023333D01*
X135794819Y-95023333D02*
X136794819Y-94594762D01*
X137596666Y-95214819D02*
X137929999Y-94738628D01*
X138168094Y-95214819D02*
X138168094Y-94214819D01*
X138168094Y-94214819D02*
X137787142Y-94214819D01*
X137787142Y-94214819D02*
X137691904Y-94262438D01*
X137691904Y-94262438D02*
X137644285Y-94310057D01*
X137644285Y-94310057D02*
X137596666Y-94405295D01*
X137596666Y-94405295D02*
X137596666Y-94548152D01*
X137596666Y-94548152D02*
X137644285Y-94643390D01*
X137644285Y-94643390D02*
X137691904Y-94691009D01*
X137691904Y-94691009D02*
X137787142Y-94738628D01*
X137787142Y-94738628D02*
X138168094Y-94738628D01*
X137215713Y-94310057D02*
X137168094Y-94262438D01*
X137168094Y-94262438D02*
X137072856Y-94214819D01*
X137072856Y-94214819D02*
X136834761Y-94214819D01*
X136834761Y-94214819D02*
X136739523Y-94262438D01*
X136739523Y-94262438D02*
X136691904Y-94310057D01*
X136691904Y-94310057D02*
X136644285Y-94405295D01*
X136644285Y-94405295D02*
X136644285Y-94500533D01*
X136644285Y-94500533D02*
X136691904Y-94643390D01*
X136691904Y-94643390D02*
X137263332Y-95214819D01*
X137263332Y-95214819D02*
X136644285Y-95214819D01*
X148616666Y-95809580D02*
X148664285Y-95857200D01*
X148664285Y-95857200D02*
X148807142Y-95904819D01*
X148807142Y-95904819D02*
X148902380Y-95904819D01*
X148902380Y-95904819D02*
X149045237Y-95857200D01*
X149045237Y-95857200D02*
X149140475Y-95761961D01*
X149140475Y-95761961D02*
X149188094Y-95666723D01*
X149188094Y-95666723D02*
X149235713Y-95476247D01*
X149235713Y-95476247D02*
X149235713Y-95333390D01*
X149235713Y-95333390D02*
X149188094Y-95142914D01*
X149188094Y-95142914D02*
X149140475Y-95047676D01*
X149140475Y-95047676D02*
X149045237Y-94952438D01*
X149045237Y-94952438D02*
X148902380Y-94904819D01*
X148902380Y-94904819D02*
X148807142Y-94904819D01*
X148807142Y-94904819D02*
X148664285Y-94952438D01*
X148664285Y-94952438D02*
X148616666Y-95000057D01*
X147711904Y-94904819D02*
X148188094Y-94904819D01*
X148188094Y-94904819D02*
X148235713Y-95381009D01*
X148235713Y-95381009D02*
X148188094Y-95333390D01*
X148188094Y-95333390D02*
X148092856Y-95285771D01*
X148092856Y-95285771D02*
X147854761Y-95285771D01*
X147854761Y-95285771D02*
X147759523Y-95333390D01*
X147759523Y-95333390D02*
X147711904Y-95381009D01*
X147711904Y-95381009D02*
X147664285Y-95476247D01*
X147664285Y-95476247D02*
X147664285Y-95714342D01*
X147664285Y-95714342D02*
X147711904Y-95809580D01*
X147711904Y-95809580D02*
X147759523Y-95857200D01*
X147759523Y-95857200D02*
X147854761Y-95904819D01*
X147854761Y-95904819D02*
X148092856Y-95904819D01*
X148092856Y-95904819D02*
X148188094Y-95857200D01*
X148188094Y-95857200D02*
X148235713Y-95809580D01*
X151726666Y-96589580D02*
X151774285Y-96637200D01*
X151774285Y-96637200D02*
X151917142Y-96684819D01*
X151917142Y-96684819D02*
X152012380Y-96684819D01*
X152012380Y-96684819D02*
X152155237Y-96637200D01*
X152155237Y-96637200D02*
X152250475Y-96541961D01*
X152250475Y-96541961D02*
X152298094Y-96446723D01*
X152298094Y-96446723D02*
X152345713Y-96256247D01*
X152345713Y-96256247D02*
X152345713Y-96113390D01*
X152345713Y-96113390D02*
X152298094Y-95922914D01*
X152298094Y-95922914D02*
X152250475Y-95827676D01*
X152250475Y-95827676D02*
X152155237Y-95732438D01*
X152155237Y-95732438D02*
X152012380Y-95684819D01*
X152012380Y-95684819D02*
X151917142Y-95684819D01*
X151917142Y-95684819D02*
X151774285Y-95732438D01*
X151774285Y-95732438D02*
X151726666Y-95780057D01*
X151393332Y-95684819D02*
X150774285Y-95684819D01*
X150774285Y-95684819D02*
X151107618Y-96065771D01*
X151107618Y-96065771D02*
X150964761Y-96065771D01*
X150964761Y-96065771D02*
X150869523Y-96113390D01*
X150869523Y-96113390D02*
X150821904Y-96161009D01*
X150821904Y-96161009D02*
X150774285Y-96256247D01*
X150774285Y-96256247D02*
X150774285Y-96494342D01*
X150774285Y-96494342D02*
X150821904Y-96589580D01*
X150821904Y-96589580D02*
X150869523Y-96637200D01*
X150869523Y-96637200D02*
X150964761Y-96684819D01*
X150964761Y-96684819D02*
X151250475Y-96684819D01*
X151250475Y-96684819D02*
X151345713Y-96637200D01*
X151345713Y-96637200D02*
X151393332Y-96589580D01*
X137696666Y-92034819D02*
X138029999Y-91558628D01*
X138268094Y-92034819D02*
X138268094Y-91034819D01*
X138268094Y-91034819D02*
X137887142Y-91034819D01*
X137887142Y-91034819D02*
X137791904Y-91082438D01*
X137791904Y-91082438D02*
X137744285Y-91130057D01*
X137744285Y-91130057D02*
X137696666Y-91225295D01*
X137696666Y-91225295D02*
X137696666Y-91368152D01*
X137696666Y-91368152D02*
X137744285Y-91463390D01*
X137744285Y-91463390D02*
X137791904Y-91511009D01*
X137791904Y-91511009D02*
X137887142Y-91558628D01*
X137887142Y-91558628D02*
X138268094Y-91558628D01*
X136744285Y-92034819D02*
X137315713Y-92034819D01*
X137029999Y-92034819D02*
X137029999Y-91034819D01*
X137029999Y-91034819D02*
X137125237Y-91177676D01*
X137125237Y-91177676D02*
X137220475Y-91272914D01*
X137220475Y-91272914D02*
X137315713Y-91320533D01*
X145040187Y-104385987D02*
X144467767Y-104958407D01*
X144467767Y-104958407D02*
X144366752Y-104992079D01*
X144366752Y-104992079D02*
X144299408Y-104992079D01*
X144299408Y-104992079D02*
X144198393Y-104958407D01*
X144198393Y-104958407D02*
X144063706Y-104823720D01*
X144063706Y-104823720D02*
X144030034Y-104722705D01*
X144030034Y-104722705D02*
X144030034Y-104655361D01*
X144030034Y-104655361D02*
X144063706Y-104554346D01*
X144063706Y-104554346D02*
X144636126Y-103981926D01*
X143221912Y-103981926D02*
X143625973Y-104385987D01*
X143423943Y-104183957D02*
X144131049Y-103476850D01*
X144131049Y-103476850D02*
X144097378Y-103645209D01*
X144097378Y-103645209D02*
X144097378Y-103779896D01*
X144097378Y-103779896D02*
X144131049Y-103880911D01*
X137723333Y-90337319D02*
X137723333Y-91051604D01*
X137723333Y-91051604D02*
X137770952Y-91194461D01*
X137770952Y-91194461D02*
X137866190Y-91289700D01*
X137866190Y-91289700D02*
X138009047Y-91337319D01*
X138009047Y-91337319D02*
X138104285Y-91337319D01*
X136723333Y-91337319D02*
X137294761Y-91337319D01*
X137009047Y-91337319D02*
X137009047Y-90337319D01*
X137009047Y-90337319D02*
X137104285Y-90480176D01*
X137104285Y-90480176D02*
X137199523Y-90575414D01*
X137199523Y-90575414D02*
X137294761Y-90623033D01*
X151726666Y-97569580D02*
X151774285Y-97617200D01*
X151774285Y-97617200D02*
X151917142Y-97664819D01*
X151917142Y-97664819D02*
X152012380Y-97664819D01*
X152012380Y-97664819D02*
X152155237Y-97617200D01*
X152155237Y-97617200D02*
X152250475Y-97521961D01*
X152250475Y-97521961D02*
X152298094Y-97426723D01*
X152298094Y-97426723D02*
X152345713Y-97236247D01*
X152345713Y-97236247D02*
X152345713Y-97093390D01*
X152345713Y-97093390D02*
X152298094Y-96902914D01*
X152298094Y-96902914D02*
X152250475Y-96807676D01*
X152250475Y-96807676D02*
X152155237Y-96712438D01*
X152155237Y-96712438D02*
X152012380Y-96664819D01*
X152012380Y-96664819D02*
X151917142Y-96664819D01*
X151917142Y-96664819D02*
X151774285Y-96712438D01*
X151774285Y-96712438D02*
X151726666Y-96760057D01*
X150869523Y-96998152D02*
X150869523Y-97664819D01*
X151107618Y-96617200D02*
X151345713Y-97331485D01*
X151345713Y-97331485D02*
X150726666Y-97331485D01*
X148616666Y-96799580D02*
X148664285Y-96847200D01*
X148664285Y-96847200D02*
X148807142Y-96894819D01*
X148807142Y-96894819D02*
X148902380Y-96894819D01*
X148902380Y-96894819D02*
X149045237Y-96847200D01*
X149045237Y-96847200D02*
X149140475Y-96751961D01*
X149140475Y-96751961D02*
X149188094Y-96656723D01*
X149188094Y-96656723D02*
X149235713Y-96466247D01*
X149235713Y-96466247D02*
X149235713Y-96323390D01*
X149235713Y-96323390D02*
X149188094Y-96132914D01*
X149188094Y-96132914D02*
X149140475Y-96037676D01*
X149140475Y-96037676D02*
X149045237Y-95942438D01*
X149045237Y-95942438D02*
X148902380Y-95894819D01*
X148902380Y-95894819D02*
X148807142Y-95894819D01*
X148807142Y-95894819D02*
X148664285Y-95942438D01*
X148664285Y-95942438D02*
X148616666Y-95990057D01*
X147759523Y-95894819D02*
X147949999Y-95894819D01*
X147949999Y-95894819D02*
X148045237Y-95942438D01*
X148045237Y-95942438D02*
X148092856Y-95990057D01*
X148092856Y-95990057D02*
X148188094Y-96132914D01*
X148188094Y-96132914D02*
X148235713Y-96323390D01*
X148235713Y-96323390D02*
X148235713Y-96704342D01*
X148235713Y-96704342D02*
X148188094Y-96799580D01*
X148188094Y-96799580D02*
X148140475Y-96847200D01*
X148140475Y-96847200D02*
X148045237Y-96894819D01*
X148045237Y-96894819D02*
X147854761Y-96894819D01*
X147854761Y-96894819D02*
X147759523Y-96847200D01*
X147759523Y-96847200D02*
X147711904Y-96799580D01*
X147711904Y-96799580D02*
X147664285Y-96704342D01*
X147664285Y-96704342D02*
X147664285Y-96466247D01*
X147664285Y-96466247D02*
X147711904Y-96371009D01*
X147711904Y-96371009D02*
X147759523Y-96323390D01*
X147759523Y-96323390D02*
X147854761Y-96275771D01*
X147854761Y-96275771D02*
X148045237Y-96275771D01*
X148045237Y-96275771D02*
X148140475Y-96323390D01*
X148140475Y-96323390D02*
X148188094Y-96371009D01*
X148188094Y-96371009D02*
X148235713Y-96466247D01*
X151736666Y-99969580D02*
X151784285Y-100017200D01*
X151784285Y-100017200D02*
X151927142Y-100064819D01*
X151927142Y-100064819D02*
X152022380Y-100064819D01*
X152022380Y-100064819D02*
X152165237Y-100017200D01*
X152165237Y-100017200D02*
X152260475Y-99921961D01*
X152260475Y-99921961D02*
X152308094Y-99826723D01*
X152308094Y-99826723D02*
X152355713Y-99636247D01*
X152355713Y-99636247D02*
X152355713Y-99493390D01*
X152355713Y-99493390D02*
X152308094Y-99302914D01*
X152308094Y-99302914D02*
X152260475Y-99207676D01*
X152260475Y-99207676D02*
X152165237Y-99112438D01*
X152165237Y-99112438D02*
X152022380Y-99064819D01*
X152022380Y-99064819D02*
X151927142Y-99064819D01*
X151927142Y-99064819D02*
X151784285Y-99112438D01*
X151784285Y-99112438D02*
X151736666Y-99160057D01*
X151355713Y-99160057D02*
X151308094Y-99112438D01*
X151308094Y-99112438D02*
X151212856Y-99064819D01*
X151212856Y-99064819D02*
X150974761Y-99064819D01*
X150974761Y-99064819D02*
X150879523Y-99112438D01*
X150879523Y-99112438D02*
X150831904Y-99160057D01*
X150831904Y-99160057D02*
X150784285Y-99255295D01*
X150784285Y-99255295D02*
X150784285Y-99350533D01*
X150784285Y-99350533D02*
X150831904Y-99493390D01*
X150831904Y-99493390D02*
X151403332Y-100064819D01*
X151403332Y-100064819D02*
X150784285Y-100064819D01*
X137696666Y-93644819D02*
X138029999Y-93168628D01*
X138268094Y-93644819D02*
X138268094Y-92644819D01*
X138268094Y-92644819D02*
X137887142Y-92644819D01*
X137887142Y-92644819D02*
X137791904Y-92692438D01*
X137791904Y-92692438D02*
X137744285Y-92740057D01*
X137744285Y-92740057D02*
X137696666Y-92835295D01*
X137696666Y-92835295D02*
X137696666Y-92978152D01*
X137696666Y-92978152D02*
X137744285Y-93073390D01*
X137744285Y-93073390D02*
X137791904Y-93121009D01*
X137791904Y-93121009D02*
X137887142Y-93168628D01*
X137887142Y-93168628D02*
X138268094Y-93168628D01*
X137363332Y-92644819D02*
X136744285Y-92644819D01*
X136744285Y-92644819D02*
X137077618Y-93025771D01*
X137077618Y-93025771D02*
X136934761Y-93025771D01*
X136934761Y-93025771D02*
X136839523Y-93073390D01*
X136839523Y-93073390D02*
X136791904Y-93121009D01*
X136791904Y-93121009D02*
X136744285Y-93216247D01*
X136744285Y-93216247D02*
X136744285Y-93454342D01*
X136744285Y-93454342D02*
X136791904Y-93549580D01*
X136791904Y-93549580D02*
X136839523Y-93597200D01*
X136839523Y-93597200D02*
X136934761Y-93644819D01*
X136934761Y-93644819D02*
X137220475Y-93644819D01*
X137220475Y-93644819D02*
X137315713Y-93597200D01*
X137315713Y-93597200D02*
X137363332Y-93549580D01*
D11*
%TO.C,C1*%
X151687836Y-99430000D02*
X151472164Y-99430000D01*
X151687836Y-100150000D02*
X151472164Y-100150000D01*
%TO.C,C7*%
X134820000Y-94082164D02*
X134820000Y-94297836D01*
X135540000Y-94082164D02*
X135540000Y-94297836D01*
%TO.C,R2*%
X137667258Y-92807500D02*
X137192742Y-92807500D01*
X137667258Y-93852500D02*
X137192742Y-93852500D01*
%TO.C,C5*%
X148342164Y-96250000D02*
X148557836Y-96250000D01*
X148342164Y-96970000D02*
X148557836Y-96970000D01*
%TO.C,C3*%
X151452164Y-97030000D02*
X151667836Y-97030000D01*
X151452164Y-97750000D02*
X151667836Y-97750000D01*
%TO.C,R1*%
X137767258Y-89627500D02*
X137292742Y-89627500D01*
X137767258Y-90672500D02*
X137292742Y-90672500D01*
D10*
%TO.C,U1*%
X145742283Y-100343654D02*
X146025126Y-100626497D01*
X146025126Y-100060811D02*
X145742283Y-100343654D01*
X147722182Y-98363755D02*
X148005025Y-98080912D01*
X148005025Y-98080912D02*
X148287868Y-98363755D01*
X148005025Y-102606396D02*
X147722182Y-102323553D01*
X148287868Y-102323553D02*
X148005025Y-102606396D01*
X149984924Y-100060811D02*
X150267767Y-100343654D01*
X150267767Y-100343654D02*
X149984924Y-100626497D01*
D12*
X148486862Y-97911207D02*
G75*
G02*
X148286864Y-97911207I-99999J0D01*
G01*
X148286864Y-97911207D02*
G75*
G02*
X148486862Y-97911207I99999J0D01*
G01*
D13*
%TO.C,J1*%
X133840000Y-95182500D02*
X133840000Y-96422500D01*
X133840000Y-98932500D02*
X133840000Y-99502500D01*
X133840000Y-99502500D02*
X140940000Y-99502500D01*
X135760000Y-95182500D02*
X133840000Y-95182500D01*
X139020000Y-95182500D02*
X140940000Y-95182500D01*
X140940000Y-95182500D02*
X140940000Y-96462500D01*
X140940000Y-98932500D02*
X140940000Y-99502500D01*
X139350000Y-94742500D02*
G75*
G02*
X139090000Y-94742500I-130000J0D01*
G01*
X139090000Y-94742500D02*
G75*
G02*
X139350000Y-94742500I130000J0D01*
G01*
D11*
%TO.C,C4*%
X151452164Y-98010000D02*
X151667836Y-98010000D01*
X151452164Y-98730000D02*
X151667836Y-98730000D01*
%TO.C,C6*%
X148342164Y-97240000D02*
X148557836Y-97240000D01*
X148342164Y-97960000D02*
X148557836Y-97960000D01*
%TO.C,C2*%
X151462164Y-100410000D02*
X151677836Y-100410000D01*
X151462164Y-101130000D02*
X151677836Y-101130000D01*
%TO.C,R3*%
X137767258Y-91237500D02*
X137292742Y-91237500D01*
X137767258Y-92282500D02*
X137292742Y-92282500D01*
%TD*%
%LPC*%
D14*
%TO.C,C1*%
X151100000Y-99790000D03*
X152060000Y-99790000D03*
%TD*%
D15*
%TO.C,C7*%
X135180000Y-94670000D03*
X135180000Y-93710000D03*
%TD*%
D16*
%TO.C,R2*%
X136605000Y-93330000D03*
X138255000Y-93330000D03*
%TD*%
D17*
%TO.C,C5*%
X148930000Y-96610000D03*
X147970000Y-96610000D03*
%TD*%
%TO.C,C3*%
X152040000Y-97390000D03*
X151080000Y-97390000D03*
%TD*%
D16*
%TO.C,R1*%
X136705000Y-90150000D03*
X138355000Y-90150000D03*
%TD*%
D18*
%TO.C,U1*%
X148500000Y-98717308D03*
X148782842Y-99000151D03*
X149065685Y-99282994D03*
X149348528Y-99565837D03*
X149631371Y-99848679D03*
D19*
X149631371Y-100838629D03*
X149348528Y-101121471D03*
X149065685Y-101404314D03*
X148782842Y-101687157D03*
X148500000Y-101970000D03*
D20*
X147510050Y-101970000D03*
X147227208Y-101687157D03*
X146944365Y-101404314D03*
X146661522Y-101121471D03*
X146378679Y-100838629D03*
D21*
X146378679Y-99848679D03*
X146661522Y-99565837D03*
X146944365Y-99282994D03*
X147227208Y-99000151D03*
X147510050Y-98717308D03*
D22*
X148005025Y-100343654D03*
%TD*%
D23*
%TO.C,J1*%
X138640000Y-94882500D03*
X138140000Y-94882500D03*
X137640000Y-94882500D03*
X137140000Y-94882500D03*
X136640000Y-94882500D03*
X136140000Y-94882500D03*
D24*
X133990000Y-97582500D03*
X140790000Y-97582500D03*
%TD*%
D17*
%TO.C,C4*%
X152040000Y-98370000D03*
X151080000Y-98370000D03*
%TD*%
%TO.C,C6*%
X148930000Y-97600000D03*
X147970000Y-97600000D03*
%TD*%
%TO.C,C2*%
X152050000Y-100770000D03*
X151090000Y-100770000D03*
%TD*%
D16*
%TO.C,R3*%
X136705000Y-91760000D03*
X138355000Y-91760000D03*
%TD*%
%LPD*%
M02*
