M48
; DRILL file {KiCad 8.0.3-rc1} date 2025-07-22T16:47:34-0700
; FORMAT={-:-/ absolute / inch / decimal}
; #@! TF.CreationDate,2025-07-22T16:47:34-07:00
; #@! TF.GenerationSoftware,Kicad,Pcbnew,8.0.3-rc1
; #@! TF.FileFunction,Plated,1,2,PTH
FMAT,2
INCH
; #@! TA.AperFunction,Plated,PTH,ViaDrill
T1C0.0079
%
G90
G05
T1
X5.0685Y-4.5437
X5.0689Y-3.5606
X5.0689Y-3.6614
X5.0689Y-3.8102
X5.0689Y-3.8528
X5.0689Y-4.0307
X5.0689Y-4.0732
X5.0689Y-4.2508
X5.0689Y-4.2941
X5.0689Y-4.4425
X5.2067Y-3.5902
X5.2067Y-3.6331
X5.2067Y-3.8102
X5.2067Y-3.8531
X5.2067Y-4.0311
X5.2067Y-4.0736
X5.2067Y-4.2512
X5.2067Y-4.2953
X5.2067Y-4.472
X5.2067Y-4.5142
X5.3445Y-3.5898
X5.3445Y-3.6327
X5.3445Y-3.8106
X5.3445Y-3.8524
X5.3445Y-4.0311
X5.3445Y-4.0732
X5.3445Y-4.2516
X5.3445Y-4.2937
X5.3445Y-4.4717
X5.3445Y-4.5142
X5.4823Y-3.5902
X5.4823Y-3.6323
X5.4823Y-3.8106
X5.4823Y-3.8528
X5.4823Y-4.0311
X5.4823Y-4.0732
X5.4823Y-4.2516
X5.4823Y-4.2933
X5.4823Y-4.472
X5.4823Y-4.5142
X5.5512Y-4.4055
X5.6197Y-3.6327
X5.6201Y-3.5902
X5.6201Y-3.8102
X5.6201Y-3.8531
X5.6201Y-4.0307
X5.6201Y-4.2516
X5.6201Y-4.2933
X5.6201Y-4.4724
X5.6201Y-4.5134
X5.6205Y-4.0744
X5.689Y-3.7004
X5.689Y-3.9209
X5.689Y-3.9622
X5.689Y-4.1839
X5.7579Y-3.5902
X5.7579Y-3.6319
X5.7579Y-3.8106
X5.7579Y-3.8524
X5.7579Y-4.0315
X5.7579Y-4.0724
X5.7579Y-4.252
X5.7579Y-4.2929
X5.7579Y-4.4724
X5.7579Y-4.5142
X5.8957Y-3.5902
X5.8957Y-3.6319
X5.8957Y-3.811
X5.8957Y-3.8528
X5.8957Y-4.0315
X5.8957Y-4.0728
X5.8957Y-4.2516
X5.8957Y-4.2933
X5.8957Y-4.4724
X5.8957Y-4.5142
X6.0335Y-3.661
X6.0335Y-3.8102
X6.0335Y-3.8528
X6.0335Y-4.0303
X6.0335Y-4.0736
X6.0335Y-4.2516
X6.0335Y-4.2933
X6.0335Y-4.4425
X6.0339Y-3.561
X6.0339Y-4.5433
M30
